<?xml version="1.0" standalone="no"?>
<!DOCTYPE svg PUBLIC "-//W3C//DTD SVG 20010904//EN"
 "http://www.w3.org/TR/2001/REC-SVG-20010904/DTD/svg10.dtd">
<svg version="1.0" xmlns="http://www.w3.org/2000/svg"
 width="208.000000pt" height="237.000000pt" viewBox="0 0 208.000000 237.000000"
 preserveAspectRatio="xMidYMid meet">

<g transform="translate(0.000000,237.000000) scale(0.100000,-0.100000)"
fill="#000000" stroke="none">
<path d="M751 2343 c-27 -27 -35 -51 -53 -158 -3 -16 -8 -12 -22 18 -49 100
-119 124 -164 57 -20 -29 -22 -42 -17 -80 8 -55 38 -115 76 -156 l30 -31 -25
-44 c-32 -57 -56 -149 -56 -214 l0 -51 -50 -18 c-64 -23 -142 -96 -172 -161
-19 -42 -23 -66 -22 -147 l1 -97 -51 -17 c-74 -25 -135 -87 -182 -186 -35 -75
-39 -91 -39 -163 0 -98 25 -156 100 -231 97 -97 229 -139 420 -132 l120 5 40
-32 c56 -46 87 -60 195 -88 127 -34 187 -40 299 -28 126 14 177 39 275 141
l79 81 35 -12 c44 -14 128 -5 231 26 123 36 167 67 205 142 19 38 22 192 5
241 -10 28 -7 37 26 91 50 81 58 165 25 273 -28 95 -56 141 -127 214 -54 56
-110 88 -205 118 -13 4 -18 16 -18 43 0 42 -44 144 -86 198 -26 34 -26 35 -10
82 21 60 21 142 0 171 -22 32 -76 30 -103 -4 -12 -15 -21 -33 -21 -40 0 -8 -4
-14 -10 -14 -5 0 -10 7 -10 16 0 22 -55 74 -78 74 -11 0 -32 -14 -47 -32 -24
-29 -26 -37 -20 -82 3 -27 13 -65 21 -84 13 -33 13 -37 -6 -57 -12 -13 -32
-49 -45 -81 -21 -52 -27 -58 -47 -54 -13 3 -73 5 -134 5 l-111 0 -29 49 c-16
27 -51 70 -77 96 l-48 48 21 73 c27 100 27 176 -3 220 -31 47 -76 51 -116 12z
m90 -35 c16 -30 6 -161 -18 -227 l-19 -55 66 -65 c36 -36 73 -80 82 -97 l17
-30 -63 -37 c-68 -38 -96 -73 -117 -144 -12 -43 -22 -52 -34 -33 -13 21 -92
53 -145 59 l-55 6 2 50 c4 81 23 146 59 207 19 31 34 60 34 65 0 4 -15 18 -34
30 -37 24 -86 114 -86 158 0 36 17 65 39 65 33 0 76 -64 111 -164 10 -30 24
-52 33 -54 15 -3 17 7 17 65 1 77 21 186 40 208 18 22 57 19 71 -7z m585 -150
c10 -18 22 -60 28 -93 8 -40 16 -61 27 -63 12 -2 18 14 28 73 8 49 20 84 32
96 26 26 34 24 49 -11 13 -32 2 -101 -25 -154 -13 -25 -12 -30 22 -74 41 -54
79 -131 88 -182 l6 -35 -74 3 c-51 3 -94 -1 -133 -13 -48 -14 -59 -14 -63 -3
-2 7 -26 35 -54 63 l-49 50 17 53 c9 29 29 68 46 86 32 37 35 52 14 80 -20 27
-30 122 -15 141 20 24 38 18 56 -17z m-180 -377 c55 -25 111 -76 135 -123 22
-42 26 -44 54 -24 36 24 124 39 194 32 186 -17 327 -128 380 -300 35 -115 23
-192 -44 -280 -26 -34 -26 -35 -11 -81 9 -25 16 -79 16 -122 0 -122 -34 -162
-178 -207 -95 -30 -193 -34 -249 -11 -19 8 -37 15 -39 15 -2 0 -12 -17 -23
-37 -25 -50 -140 -159 -188 -180 -58 -25 -278 -30 -362 -8 -109 28 -171 56
-226 100 -51 42 -54 43 -96 33 -68 -15 -233 -4 -311 21 -207 67 -294 239 -211
421 16 36 43 80 59 99 30 36 118 81 159 81 13 0 26 4 29 9 3 5 1 47 -5 94 -10
75 -9 92 7 143 31 100 111 163 219 172 73 5 151 -23 190 -70 38 -45 55 -34 86
57 32 94 65 129 156 162 77 29 200 31 259 4z"/>
<path d="M779 2243 c-16 -38 -17 -145 -2 -150 12 -4 33 77 33 132 0 44 -17 54
-31 18z"/>
<path d="M568 2194 c-8 -7 15 -74 37 -108 10 -14 24 -26 32 -26 19 0 11 38
-20 94 -22 39 -38 52 -49 40z"/>
<path d="M847 1933 c-12 -12 -7 -41 7 -46 19 -7 40 18 32 38 -6 15 -28 20 -39
8z"/>
<path d="M654 1905 c-8 -19 3 -35 26 -35 19 0 30 17 23 38 -6 17 -42 15 -49
-3z"/>
<path d="M1386 2142 c-8 -13 23 -102 36 -102 15 0 3 80 -15 97 -9 9 -17 11
-21 5z"/>
<path d="M1546 2122 c-13 -21 -18 -92 -7 -92 14 0 31 42 31 76 0 23 -14 32
-24 16z"/>
<path d="M1396 1891 c-9 -14 4 -41 19 -41 17 0 38 27 30 40 -8 12 -42 13 -49
1z"/>
<path d="M1562 1878 c2 -15 10 -23 23 -23 30 0 27 39 -3 43 -20 3 -23 0 -20
-20z"/>
<path d="M1282 1391 c-9 -5 -12 -28 -10 -76 2 -56 7 -70 24 -82 33 -22 54 5
54 70 0 74 -30 113 -68 88z"/>
<path d="M1646 1378 c-19 -27 -21 -119 -4 -136 35 -35 68 3 68 79 0 73 -33
102 -64 57z"/>
<path d="M1052 1290 c-65 -30 -88 -98 -56 -165 19 -40 66 -65 124 -65 36 0 48
6 81 39 32 32 39 46 39 77 -1 101 -94 158 -188 114z m48 -19 c0 -5 -9 -11 -20
-14 -20 -5 -26 3 -13 16 9 10 33 8 33 -2z m80 -11 c0 -13 -20 -13 -40 0 -12 8
-9 10 13 10 15 0 27 -4 27 -10z m-159 -57 c-9 -16 -10 -15 -11 8 0 14 3 29 8
33 12 12 14 -22 3 -41z m197 9 c6 -18 -15 -14 -22 4 -4 10 -1 14 6 12 6 -2 14
-10 16 -16z m-188 -51 c0 -5 3 -18 6 -28 5 -16 4 -16 -10 1 -18 23 -20 36 -6
36 6 0 10 -4 10 -9z m190 2 c0 -14 -19 -38 -25 -32 -8 8 5 39 16 39 5 0 9 -3
9 -7z m-120 -63 c0 -5 -9 -10 -19 -10 -11 0 -23 5 -26 10 -4 6 5 10 19 10 14
0 26 -4 26 -10z m75 0 c-3 -5 -16 -10 -28 -10 -18 0 -19 2 -7 10 20 13 43 13
35 0z"/>
<path d="M1770 1287 c-55 -28 -65 -100 -21 -149 24 -27 36 -33 71 -33 60 0 92
39 88 103 -3 40 -8 49 -37 69 -38 26 -65 28 -101 10z m50 -27 c-19 -13 -30
-13 -30 0 0 6 10 10 23 10 18 0 19 -2 7 -10z m55 -10 c3 -5 2 -10 -4 -10 -5 0
-13 5 -16 10 -3 6 -2 10 4 10 5 0 13 -4 16 -10z m-105 -19 c0 -6 -4 -13 -10
-16 -5 -3 -10 1 -10 9 0 9 5 16 10 16 6 0 10 -4 10 -9z m130 -32 c0 -5 -4 -9
-10 -9 -5 0 -10 7 -10 16 0 8 5 12 10 9 6 -3 10 -10 10 -16z m-130 -35 c0 -8
-4 -12 -10 -9 -5 3 -10 10 -10 16 0 5 5 9 10 9 6 0 10 -7 10 -16z m106 -21
c-10 -10 -19 5 -10 18 6 11 8 11 12 0 2 -7 1 -15 -2 -18z m-51 -3 c3 -5 -3
-10 -14 -10 -12 0 -21 5 -21 10 0 6 6 10 14 10 8 0 18 -4 21 -10z"/>
<path d="M1504 1215 c-9 -22 9 -37 37 -33 16 2 24 10 24 23 0 26 -52 35 -61
10z"/>
<path d="M1368 233 c-31 -8 -39 -67 -22 -150 5 -26 44 -33 44 -8 0 19 3 19 49
-4 28 -15 41 -17 49 -9 16 16 -2 44 -32 52 -22 5 -23 9 -18 52 4 38 1 50 -13
61 -19 13 -27 14 -57 6z m32 -52 c0 -6 -4 -13 -10 -16 -5 -3 -10 1 -10 9 0 9
5 16 10 16 6 0 10 -4 10 -9z"/>
<path d="M1080 203 c-14 -3 -31 -10 -38 -15 -19 -16 5 -39 33 -32 20 5 25 1
34 -33 6 -21 11 -46 11 -56 0 -13 6 -18 23 -15 23 3 24 11 13 72 -5 28 -3 34
14 39 12 3 20 13 20 26 0 18 -6 21 -42 20 -24 -1 -54 -4 -68 -6z"/>
<path d="M888 173 c-7 -16 -13 -30 -15 -32 -2 -3 -16 8 -33 24 -17 17 -35 25
-44 22 -25 -10 -19 -27 23 -66 33 -31 38 -41 34 -67 -5 -33 11 -54 28 -37 14
14 51 154 45 170 -9 21 -26 15 -38 -14z"/>
<path d="M960 139 c-9 -15 -8 -24 1 -35 18 -22 53 -13 57 15 6 40 -39 56 -58
20z"/>
<path d="M1230 131 c-7 -15 -6 -24 6 -36 19 -18 33 -16 48 7 7 12 6 21 -3 32
-18 22 -38 20 -51 -3z"/>
</g>
</svg>
